<svg width="22" height="22" viewBox="0 0 22 22" fill="none" xmlns="http://www.w3.org/2000/svg">
<path fill-rule="evenodd" clip-rule="evenodd" d="M8.60468 17.2094C3.85245 17.2094 0 13.3569 0 8.60468C0 3.85245 3.85245 0 8.60468 0C13.3569 0 17.2094 3.85245 17.2094 8.60468C17.2094 10.5498 16.564 12.3441 15.4757 13.7853C15.4889 13.7973 15.5019 13.8098 15.5146 13.8226L21.1645 19.4724C21.6445 19.9524 21.6445 20.7307 21.1645 21.2108C20.6844 21.6908 19.9061 21.6908 19.4261 21.2108L13.7762 15.561C13.7612 15.546 13.7467 15.5307 13.7326 15.5151C12.3005 16.5796 10.5262 17.2094 8.60468 17.2094ZM13.6217 14.0109C12.3055 15.2329 10.5423 15.9801 8.60468 15.9801C4.53134 15.9801 1.22924 12.678 1.22924 8.60468C1.22924 4.53134 4.53134 1.22924 8.60468 1.22924C12.678 1.22924 15.9801 4.53134 15.9801 8.60468C15.9801 10.5626 15.2172 12.3424 13.9724 13.6628C13.903 13.7083 13.8372 13.7616 13.7762 13.8226C13.7175 13.8812 13.666 13.9444 13.6217 14.0109Z" fill="white"/>
</svg>
